<svg viewBox="0 0 800 600" fill="none" xmlns="http://www.w3.org/2000/svg">
  <g opacity="0.4">
    <!-- Simplified Europe Map -->
    <!-- UK & Ireland -->
    <path d="M280 180 L290 160 L300 150 L310 155 L315 165 L310 175 L300 180 L290 185 L285 190 L280 180 Z" fill="currentColor"/>
    <path d="M270 200 L275 195 L280 195 L285 200 L282 210 L275 215 L270 210 L270 200 Z" fill="currentColor"/>

    <!-- Scandinavia -->
    <path d="M380 80 L390 70 L400 65 L410 70 L420 80 L425 90 L430 100 L435 110 L440 120 L435 130 L430 125 L425 120 L420 115 L415 110 L410 100 L405 95 L400 90 L395 85 L390 82 L385 80 L380 80 Z" fill="currentColor"/>
    <path d="M440 50 L450 45 L460 50 L470 60 L475 70 L480 80 L485 90 L490 100 L485 110 L480 105 L475 100 L470 95 L465 90 L460 85 L455 80 L450 75 L445 65 L440 55 L440 50 Z" fill="currentColor"/>
    <path d="M420 140 L425 135 L430 140 L435 145 L440 150 L445 155 L450 160 L445 165 L440 160 L435 155 L430 150 L425 145 L420 140 Z" fill="currentColor"/>

    <!-- Central Europe -->
    <path d="M350 250 L360 245 L370 240 L380 235 L390 240 L400 245 L410 250 L420 255 L430 260 L440 265 L445 270 L450 275 L445 280 L440 285 L435 290 L430 285 L425 280 L420 275 L415 270 L410 265 L405 260 L400 255 L395 250 L390 255 L385 260 L380 265 L375 260 L370 255 L365 250 L360 255 L355 252 L350 250 Z" fill="currentColor"/>

    <!-- France -->
    <path d="M320 280 L330 275 L340 270 L350 275 L360 280 L365 285 L370 290 L375 295 L370 300 L365 305 L360 310 L355 315 L350 310 L345 305 L340 300 L335 295 L330 290 L325 285 L320 280 Z" fill="currentColor"/>

    <!-- Spain & Portugal -->
    <path d="M280 340 L290 335 L300 330 L310 335 L320 340 L330 345 L340 350 L345 355 L340 360 L335 365 L330 370 L325 365 L320 360 L315 355 L310 350 L305 345 L300 350 L295 355 L290 350 L285 345 L280 340 Z" fill="currentColor"/>
    <path d="M270 350 L275 345 L280 350 L275 355 L270 360 L265 355 L270 350 Z" fill="currentColor"/>

    <!-- Italy -->
    <path d="M390 320 L395 315 L400 310 L405 315 L410 320 L415 325 L420 330 L415 335 L410 340 L405 345 L400 350 L395 355 L390 360 L385 365 L380 360 L385 355 L390 350 L395 345 L390 340 L385 335 L390 330 L395 325 L390 320 Z" fill="currentColor"/>
    <path d="M385 370 L390 365 L395 370 L390 375 L385 370 Z" fill="currentColor"/>
    <path d="M380 380 L385 375 L390 380 L385 385 L380 380 Z" fill="currentColor"/>

    <!-- Greece -->
    <path d="M430 360 L435 355 L440 360 L445 365 L450 370 L445 375 L440 370 L435 365 L430 360 Z" fill="currentColor"/>
    <path d="M445 380 L450 375 L455 380 L450 385 L445 380 Z" fill="currentColor"/>

    <!-- Eastern Europe -->
    <path d="M460 280 L470 275 L480 270 L490 275 L500 280 L510 285 L520 290 L530 295 L540 300 L535 305 L530 310 L525 305 L520 300 L515 295 L510 290 L505 285 L500 290 L495 295 L490 290 L485 285 L480 290 L475 295 L470 290 L465 285 L460 280 Z" fill="currentColor"/>

    <!-- Baltic States -->
    <path d="M450 200 L455 195 L460 200 L465 205 L470 210 L475 215 L470 220 L465 215 L460 210 L455 205 L450 200 Z" fill="currentColor"/>

    <!-- Poland -->
    <path d="M450 240 L460 235 L470 240 L480 245 L490 250 L485 255 L480 260 L475 255 L470 250 L465 245 L460 250 L455 245 L450 240 Z" fill="currentColor"/>

    <!-- Additional details for better coverage -->
    <path d="M340 230 L345 225 L350 230 L345 235 L340 230 Z" fill="currentColor"/>
    <path d="M400 200 L405 195 L410 200 L405 205 L400 200 Z" fill="currentColor"/>
    <path d="M520 250 L525 245 L530 250 L535 255 L530 260 L525 255 L520 250 Z" fill="currentColor"/>
  </g>
</svg>