<?xml version="1.0" encoding="UTF-8"?>
<svg id="Layer_2" data-name="Layer 2" xmlns="http://www.w3.org/2000/svg" viewBox="0 0 633.31 177.66">
  <defs>
    <style>
      .cls-1 {
        fill: #1f1d1e;
      }
    </style>
  </defs>
  <g id="Layer_1-2" data-name="Layer 1">
    <g>
      <path class="cls-1" d="M93.66,0l9.38,2.61.31.28-.05.43-.1.1-9.86,7.9-3.76,3.43-3.29,3.36-2.89,3.39-2.5,3.41-2.19,3.57-1.82,3.63-2.11,5.62-1.44,5.98-.04.1-.23.13-.24-.13-2.16-3.64-1.63-3.69-1.11-3.72-.57-3.77h0l-.03-4.14.59-4.2,1.14-4.02,1.64-3.67,2.09-3.28,2.55-2.87,2.82-2.35,3.21-1.93,3.54-1.49,3.89-1.03h4.89Z"/>
      <path class="cls-1" d="M65.88,43.87l-2.81-.7-2.76-.37-2.71-.05-2.65.28h0l-3.41.86-3.31,1.43-3.22,1.99-3.12,2.55-4.9,4.6-7.19,6.61-5.76,4.55-.38.43-.14.55v13.92l-.4.89-5.14,4.54-.56.23-.73-.2-.03-.76,1.4-5.02.91-4.29.47-3.95.07-3.85-.33-3.78.1-.54.43-.37,2.37-1.08,2.14-1.23,1.89-1.4,1.65-1.56,5.47-5.5,4.72-3.98.24-.39-.1-.45-.87-.99-1-.76-.96-.45-2.8-.89-2.8-.63-2.8-.36-2.79-.09h0l-2.74.16-2.74.43-2.73.68-2.73.93-.44-.03-.27-.34v-.08s-.02-.18-.02-.18l.11-1.08.34-1.01,1.41-2.05,2.42-2.07,3.15-1.81,3.32-1.41,3.62-1.16,3.69-.85,3.56-.47,3.44-.13,3.17.23,3.05.61,2.69.93.14.03.29-.16.03-.33-.82-2.38-.5-2.34-.2-2.41.11-2.35.61-2.99,1.07-2.81,1.57-2.71,1.97-2.46,2.36-2.16,2.68-1.84,2.96-1.46,3.2-1.07.08-.02.64.19.29.6.2,20.45.2,3.89h0l.42,2.74.65,2.71.87,2.69,1.1,2.66-.02.31-.27.16h-.11Z"/>
      <path class="cls-1" d="M80.05,43.77l-.27.1-.23-.16-.03-.13.19-4.05.94-4.14,1.69-4.18,2.43-4.13,3.17-4.06,3.77-3.81,4.33-3.52,4.62-2.99,3.58-1.86,3.61-1.49,3.5-1.07,3.47-.67,3.26-.24,3.18.18,2.98.59,2.87,1.01,3.13,1.73,2.93,2.36,2.58,2.9,2.34,3.54.02.39-.29.26h-.1s-7.04.27-7.04.27l-6.59.62-6.12.95-5.73,1.3-5.43,1.68-5.06,2.03-4.87,2.47-4.49,2.8-3.29,2.45-3.18,2.72-2.98,2.94-2.87,3.22Z"/>
      <path class="cls-1" d="M84.64,45.64l1.09-1.29,2.59-2.69,2.79-2.42,3.06-2.2,3.23-1.93,3.5-1.71,3.65-1.43,3.86-1.18,3.94-.88,4.12-.6,4.16-.3h4.27s4.27.28,4.27.28l4.22.59,4.16.87,4.05,1.15,3.93,1.43,3.42,1.57,3.23,1.84,3,2.09,2.76,2.35,2.5,2.58,2.22,2.8,1.87,2.93,1.58,3.12,1.55,4.25.99,4.54.16,7.61-.44,5.08-1.19,5.37-1.96,5.77-2.7,6.02-.21.15-.24-.09-.05-.11-.86-4.06-1.07-3.87-1.32-3.76-1.52-3.55-1.72-3.36-1.91-3.17-2.17-3.03-2.35-2.83-2.26-2.34-2.38-2.17-2.59-2.07-2.74-1.91-5.81-3.29-6.47-2.71-6.93-2.05-7.51-1.39-7.9-.72-8.17-.03-11.44,1.24h-.1s-.19-.2-.19-.2l.05-.25Z"/>
      <path class="cls-1" d="M133.45,154.37l-.06.33h-.1s-3.05-1.01-3.05-1.01l-2.65-1.63-1.81-1.77-1.53-2.24-1.16-2.55-.86-2.98-.53-3.42-.21-3.77.11-4.25.44-4.68,3.06-26.6.41-6.01-.03-5.67-.48-5.15-.94-4.73-1.36-4.17-1.8-3.69-2.27-3.25-2.68-2.7-1.83-1.4-2.03-1.22-2.14-1.01-2.34-.85-.21.21.06.08,3.19,2.6,2.23,2.55,1.9,2.97,1.52,3.27,1.17,3.67.84,4.09.49,4.48.19,4.92-.14,5.78-1.27,14.93-1.63,19.01-.29,7.08.02,6.26.26,4.39.51,4.03.79,3.78,1.03,3.4,1.29,3.05,1.59,2.82,1.83,2.46,2.15,2.22,2.59,2,2.98,1.68,3.27,1.3,3.67.95.17.08.1.33-.24.26-6.79,1.8-7.1,1.03-7.11.23-6.85-.59-3.27-.6-3.22-.79-3.03-.97-2.95-1.18-2.75-1.33-2.63-1.54-2.42-1.68-2.3-1.87-1.96-2.02-1.56-2.18-1.42-2.97-.9-3.35-.34-3.62.19-3.93.71-4.31,1.22-4.64,1.75-5.05,2.48-6.05,10.61-23.06,4-9.41,1.43-4.14,1.11-3.96.8-3.8.49-3.63.19-3.63-.11-3.44-.63-3.49-1.13-2.95-1.71-2.85-2.17-2.56-2.73-2.37-3.21-2.13-3.65-1.84-3.87-1.45-4.08-1.06-.15-.08-.06-.29.23-.19,5.39-.62,5.56-.38,5.47-.11,5.39.13,5.25.39,5.04.65,4.76.88,4.44,1.11,4.16,1.33,3.79,1.54,3.61,1.8,3.21,1.96,2.88,2.16,2.64,2.42,2.28,2.58,2.01,2.86,1.87,3.48,1.47,3.85,1.26,5.37.32,2.73.1,2.66-.19,3.59-.54,3.51-.9,3.51-1.3,3.63-1.64,3.59-2.03,3.71-2.46,3.86-2.88,3.99-6.91,9.44-6.26,9.25-.99,1.76-.65,1.68-.36,1.68-.03,1.61.53,2.43,1.3,2.46,2.09,2.52,2.97,2.7Z"/>
      <path class="cls-1" d="M56.17,130.38l-.06.13-.29.13-.27-.18-1.19-2.74-.61-2.31-.31-2.38-.71-7.77-.9-5.38v-.07s.13-.36.13-.36l.37-.13,7.48.59,4.45-.09,3-.55,2.82-.77,2.73-.99,2.53-1.2,2.35-1.4,2.14-1.58,2.02-1.82,1.79-1.97,1.5-2.03,1.3-2.16,1.1-2.26.88-2.36.68-2.49.46-2.56.24-2.61.02-2.65-.21-2.66-.42-2.68-.64-2.68-.86-2.66-1.08-2.6-1.29-2.57-3.09-4.78-.05-.11.09-.27.27-.06,2.46.85,2.19,1.16,2.07,1.55,1.81,1.84,1.61,2.19,1.35,2.45,1.16,2.86.88,3.06.64,3.3.4,3.65.14,3.95-.15,4.2-.45,4.26-.69,4.15-.98,4.16-1.19,3.83-1.38,3.44-1.52,2.95-.36.3-.47.02-2.43-.3-5.36-.28h-2.89s-2.79.19-2.79.19l-2.68.42-2.54.65-2.33.84-2.19,1.07-2.04,1.27-1.87,1.5-2.2,2.33-1.88,2.73-1.5,3.05-1.16,3.44Z"/>
      <path class="cls-1" d="M52.52,65.67l.22.13v.25h.01l-.09.09-5.13,3.58-4.56,4.15h0l-2.82,3.2-2.54,3.46-.26.14-.26-.15h0l-.04-.13-1.31-13.97v-.03l.19-.51.5-.21h16.09Z"/>
      <path class="cls-1" d="M53.61,160.68v.09s-.14.21-.14.21h-.25l-7.16-4-6.96-4.65-6.83-5.34-6.65-5.98-6.53-6.71-6.38-7.38-6.36-8.18L.05,109.8l-.05-.39.26-.29H.26l.09-.02,2.39-.61,3.36-1.25,3.3-1.25,2.54-.74,2.26-.39,2.09-.05.32.18.05.37h0l-.04.09-1.67,3.33-.94,3.32-.25,3.36.46,3.22.56,1.72.77,1.65.97,1.57,1.17,1.47,2.81,2.54,3.49,2.04,2.64,1.03,2.56.62,2.5.2,2.41-.21h0l2.17-.56,2.1-.92,2.04-1.27,1.99-1.63.47-.26.54-.03,1.03.43h0l.61.67.39.96-.02.94-.85,2.14-1.37,2.74-.11.36-.23,2.01-.28.48-.54.13h-.04s-2.84-.97-2.84-.97l-4.47-1.41-1.75-.19-1.45.14-.61.25-.47.47-.26.6-.03.66.74,2.22,1.59,2.52,2.5,2.87,3.16,2.96.78.42.89.03,1.81-.51,1.97-1.06,1.84-1.56,1.78-2.13,1.87-2.9.41-.27.46.17.08.1.99,2.24.71,2.93.47,3.68.32,5.29.06.9.33,2.52.7,3.26Z"/>
    </g>
    <g>
      <path class="cls-1" d="M233.46,172.13l11.13-26.75h3.56l10.96,26.75h-3.21l-3.35-8.4h-12.63l-3.4,8.4h-3.06ZM240.96,161.19h10.54l-5.23-13.06-5.31,13.06Z"/>
      <path class="cls-1" d="M304.07,169.84c1.65,0,3.23-.32,4.73-.98,1.51-.65,2.78-1.55,3.79-2.69l1.92,1.98c-1.33,1.38-2.92,2.45-4.75,3.23-1.83.78-3.76,1.17-5.77,1.17s-3.74-.35-5.44-1.06c-1.7-.72-3.17-1.69-4.42-2.92-1.25-1.23-2.23-2.7-2.94-4.4-.71-1.69-1.06-3.5-1.06-5.42s.35-3.7,1.06-5.4c.71-1.69,1.69-3.16,2.94-4.4,1.25-1.23,2.72-2.21,4.42-2.92,1.69-.72,3.51-1.08,5.44-1.08,2.07,0,4.03.39,5.88,1.17,1.84.78,3.42,1.85,4.71,3.23l-1.94,2.06c-1.04-1.17-2.33-2.08-3.88-2.75s-3.14-1-4.77-1c-1.53,0-2.96.29-4.29.88-1.33.57-2.49,1.35-3.46,2.33-.97.97-1.74,2.14-2.29,3.5-.56,1.36-.83,2.82-.83,4.38s.28,3.02.83,4.38c.55,1.36,1.32,2.54,2.31,3.52.98.97,2.15,1.75,3.48,2.33,1.33.57,2.78.85,4.33.85Z"/>
      <path class="cls-1" d="M346.74,172.13l11.13-26.75h3.56l10.96,26.75h-3.21l-3.35-8.4h-12.63l-3.4,8.4h-3.06ZM354.24,161.19h10.54l-5.23-13.06-5.31,13.06Z"/>
      <path class="cls-1" d="M398.85,148.02v-2.65h22.27v2.65h-9.67v24.1h-2.94v-24.1h-9.67Z"/>
      <path class="cls-1" d="M455.27,172.13v-26.75h2.94v26.75h-2.94Z"/>
      <path class="cls-1" d="M520.95,158.75c0,1.92-.36,3.72-1.08,5.42-.71,1.7-1.68,3.16-2.92,4.4-1.24,1.22-2.7,2.2-4.38,2.92-1.68.71-3.47,1.06-5.38,1.06s-3.72-.35-5.42-1.06c-1.7-.72-3.16-1.69-4.4-2.92-1.24-1.23-2.21-2.7-2.92-4.4-.71-1.69-1.06-3.5-1.06-5.42s.35-3.7,1.06-5.4c.71-1.69,1.68-3.16,2.92-4.4,1.23-1.23,2.7-2.21,4.4-2.92,1.69-.72,3.5-1.08,5.42-1.08s3.69.36,5.38,1.08c1.68.71,3.14,1.68,4.38,2.92,1.23,1.24,2.21,2.7,2.92,4.4.72,1.7,1.08,3.49,1.08,5.4ZM517.97,158.75c0-1.55-.29-3.01-.85-4.38-.56-1.36-1.31-2.53-2.27-3.5-.95-.98-2.08-1.76-3.42-2.33-1.32-.58-2.73-.88-4.23-.88s-2.96.29-4.29.88c-1.32.57-2.46,1.35-3.42,2.33-.96.97-1.72,2.14-2.27,3.5-.56,1.36-.83,2.82-.83,4.38s.28,3.01.83,4.35c.55,1.35,1.31,2.52,2.27,3.52.96.99,2.09,1.77,3.42,2.35,1.33.57,2.76.85,4.29.85s2.91-.28,4.23-.85c1.33-.58,2.47-1.36,3.42-2.35.96-1,1.71-2.17,2.27-3.52.57-1.34.85-2.8.85-4.35Z"/>
      <path class="cls-1" d="M556.13,145.38h2.94l16.1,21.71v-21.71h2.77v26.75h-2.58l-16.44-22.27v22.27h-2.79v-26.75Z"/>
      <path class="cls-1" d="M611.87,167.54l1.96-2.02c1.38,1.45,2.84,2.54,4.4,3.29,1.57.75,3.22,1.13,4.96,1.13,2.08,0,3.8-.49,5.15-1.48,1.36-1,2.04-2.26,2.04-3.79,0-1.38-.48-2.43-1.44-3.17-.96-.73-2.53-1.28-4.71-1.65l-3.88-.6c-2.57-.4-4.47-1.16-5.69-2.27-1.22-1.11-1.83-2.61-1.83-4.5,0-2.21.86-4,2.58-5.38,1.73-1.38,4.01-2.06,6.81-2.06,1.86,0,3.71.31,5.54.92,1.83.61,3.5,1.49,5,2.63l-1.67,2.29c-1.46-1.09-2.94-1.92-4.44-2.48-1.5-.55-3.02-.83-4.54-.83-1.92,0-3.47.44-4.65,1.31-1.18.88-1.77,2-1.77,3.38,0,1.25.42,2.21,1.25,2.88.84.67,2.23,1.16,4.17,1.46l3.81.6c2.9.49,5.02,1.31,6.35,2.48,1.34,1.17,2.02,2.79,2.02,4.85,0,1.17-.25,2.24-.75,3.23-.49.99-1.19,1.83-2.1,2.52-.91.7-1.99,1.24-3.25,1.65-1.25.39-2.63.58-4.13.58-2.13,0-4.16-.42-6.1-1.27-1.95-.86-3.65-2.09-5.1-3.69Z"/>
      <path class="cls-1" d="M192.53,172.13l-10.98-26.75h3.19l9.67,24,9.81-24h2.98l-11.13,26.75h-3.54Z"/>
    </g>
    <g>
      <path class="cls-1" d="M198.1,131.9h-15.29c.55-.79.98-1.64,1.29-2.54.32-.92.48-1.96.48-3.15V53.5c0-1.26-.16-2.32-.48-3.19-.31-.88-.74-1.71-1.29-2.5h31.08c3.39,0,6.74.49,10.06,1.48,3.33.99,6.36,2.47,9.08,4.46,2.72,1.97,4.9,4.41,6.52,7.29,1.63,2.88,2.44,6.21,2.44,10,0,4.36-1.09,7.95-3.27,10.75-2.17,2.81-5.16,5-8.96,6.58-3.79,1.58-8.14,2.69-13.04,3.31l31.67,40.21h-9.48c-1.43,0-2.86-.33-4.29-1-1.42-.68-2.56-1.57-3.42-2.67l-30.96-38.67h9.13c1.82,0,3.92-.31,6.29-.94,2.38-.64,4.65-1.71,6.81-3.21,2.18-1.51,3.98-3.49,5.4-5.94,1.43-2.46,2.15-5.46,2.15-9.02,0-3.96-.62-7.14-1.85-9.54-1.22-2.42-2.77-4.26-4.63-5.52-1.85-1.26-3.82-2.11-5.92-2.54-2.1-.44-4.06-.67-5.88-.67h-15.54v73.77c0,1.27.18,2.35.54,3.27.36.91.81,1.79,1.35,2.67Z"/>
      <path class="cls-1" d="M254.56,89.8c0-7.04,1.19-13.27,3.56-18.69s5.57-9.98,9.6-13.69c4.03-3.72,8.55-6.55,13.56-8.48,5.03-1.94,10.19-2.92,15.5-2.92s10.44.97,15.46,2.92c5.03,1.93,9.55,4.76,13.58,8.48,4.04,3.71,7.25,8.27,9.63,13.69s3.56,11.65,3.56,18.69-1.19,13.29-3.56,18.75c-2.38,5.45-5.58,10.03-9.63,13.75-4.03,3.71-8.56,6.54-13.58,8.48-5.02,1.93-10.17,2.9-15.46,2.9s-10.47-.97-15.5-2.9c-5.02-1.94-9.54-4.77-13.56-8.48-4.03-3.72-7.23-8.3-9.6-13.75-2.38-5.46-3.56-11.71-3.56-18.75ZM267.85,88.73c0,4.91.49,9.79,1.48,14.65.98,4.86,2.56,9.27,4.73,13.23,2.18,3.95,5.11,7.1,8.79,9.48,3.68,2.38,8.17,3.56,13.46,3.56s10.21-1.34,14.71-4.02c4.51-2.69,8.17-6.91,10.98-12.65,2.8-5.73,4.21-13.11,4.21-22.13,0-4.97-.52-9.91-1.54-14.81-1.03-4.9-2.68-9.33-4.94-13.29-2.25-3.96-5.2-7.11-8.83-9.48-3.64-2.38-8.1-3.56-13.4-3.56s-10.2,1.37-14.71,4.1c-4.5,2.72-8.12,6.95-10.85,12.69-2.72,5.72-4.08,13.14-4.08,22.23Z"/>
      <path class="cls-1" d="M364.39,131.9h-12.33c.88-1.03,1.6-2.23,2.19-3.6.59-1.39.97-3.07,1.13-5.06l5.35-65.58-5.58-9.83h8.77c1.34,0,2.61.35,3.79,1.06,1.19.71,2.1,1.66,2.73,2.85l34.4,61.9,28-61.31c.64-1.34,1.59-2.43,2.85-3.25,1.26-.83,2.65-1.25,4.15-1.25h3.79l5.94,78.15c.15,1.27.36,2.35.65,3.27.28.91.69,1.79,1.25,2.67h-15.31c.55-.88,1.01-1.7,1.35-2.48.36-.79.54-1.7.54-2.73v-.73l-4.85-64.52-30,66.9-.35-.23c-1.27-.88-2.54-2.02-3.81-3.44-1.27-1.43-2.29-2.82-3.08-4.17l-30.71-54.67-4.27,57.17v.96c0,1.74.38,3.24,1.13,4.5.75,1.27,1.52,2.41,2.31,3.44Z"/>
      <path class="cls-1" d="M528.89,130.59l-13.4-28.23h-34.88l-13.63,29.54h-7.6l2.27-1.67c.39-.23.72-.57,1-1,.28-.43.49-.8.65-1.13l32.15-69.85-4.15-7.13c-.32-.55-.7-1.13-1.15-1.71-.43-.59-.89-1.09-1.35-1.5l-.1-.1h9.71c.88,0,1.71.24,2.5.71.79.47,1.34,1.1,1.67,1.9l38.29,77.69c.48.86,1.04,1.57,1.67,2.13l2.02,1.67h-13.65c-.86,0-1.54-.44-2.02-1.31ZM482.64,98.09h30.83l-15.65-32.96-15.19,32.96Z"/>
      <path class="cls-1" d="M567.33,50.55l56.33,60.96v-56.1c0-1.67-.1-3.15-.31-4.44-.2-1.3-.69-2.4-1.48-3.27h9.15c-.79.95-1.31,2.05-1.54,3.31-.24,1.27-.35,2.77-.35,4.52v76.38l-1.44-.35c-1.82-.4-3.4-1.31-4.73-2.73l-61.08-68.08v63.33c0,1.67.09,3.14.29,4.4.19,1.27.69,2.41,1.48,3.44h-9c.78-.94,1.26-2.07,1.46-3.38.21-1.3.31-2.82.31-4.56V54.69l-6.29-7h10.69c1.18,0,2.36.26,3.54.77,1.19.52,2.19,1.21,2.98,2.08Z"/>
    </g>
  </g>
</svg>