<?xml version="1.0" encoding="UTF-8"?> <svg xmlns="http://www.w3.org/2000/svg" id="Artwork" viewBox="0 0 432.66 328.94"><defs><style>.cls-1{fill:#231f20;}.cls-2{fill:#e1251b;}.cls-3{fill:#fff;}.cls-4{fill:#c2a01e;}.cls-5{fill:none;stroke:#fff;stroke-miterlimit:10;stroke-width:5px;}</style></defs><circle class="cls-1" cx="216.14" cy="164.96" r="120.55"></circle><rect class="cls-1" x="2.5" y="135.43" width="427.66" height="58.31"></rect><path class="cls-1" d="M291.2,91.54C263.38,58.87,218,59.78,217.51,59.78h-.88c-53.83,0-77.55,29.46-77.79,29.76l-1.24-1c.24-.3,24.4-30.35,79-30.35h.89c.43,0,46.59-1,74.91,32.31Z"></path><path class="cls-2" d="M285.19,97l-15.52-2.31s18.49,12.88,24.44,29.06L314.92,95l37,4a115.2,115.2,0,0,0-28.74-40.29"></path><path class="cls-1" d="M293.88,125.38l-.51-1.39c-5.79-15.76-24-28.56-24.15-28.69l-2.76-1.92,18.85,2.81-.23,1.56L272.64,95.9c5.13,4,16.65,14,21.68,26.19l20.23-27.94L350.67,98c-2.1-4.88-10.9-23.62-28-38.77l1.05-1.18a116.82,116.82,0,0,1,28.94,40.6l.46,1.2-37.81-4.05Z"></path><path class="cls-1" d="M298,116.77a67.71,67.71,0,0,0-15-20.21l1.06-1.17a69.45,69.45,0,0,1,15.38,20.75Z"></path><path class="cls-1" d="M342,98c-9.74-18.17-25.13-32.68-25.28-32.82L317.77,64c.15.14,15.73,14.83,25.58,33.23Z"></path><path class="cls-2" d="M144.49,97,160,94.66s-18.5,12.88-24.44,29.06L114.77,95l-37,4a115.25,115.25,0,0,1,28.73-40.29"></path><path class="cls-1" d="M135.81,125.38,114.4,95.82,76.58,99.87l.46-1.2c.09-.23,8.89-22.85,28.95-40.6L107,59.25C89.91,74.41,81.11,93.14,79,98l36.12-3.87.27.37,20,27.57c5-12.19,16.55-22.18,21.68-26.19l-12.44,1.85-.23-1.56,18.84-2.81-2.75,1.92c-.18.13-18.36,12.93-24.15,28.69Z"></path><path class="cls-1" d="M131.67,116.77l-1.44-.63a69.38,69.38,0,0,1,15.39-20.75l1,1.17A67.92,67.92,0,0,0,131.67,116.77Z"></path><path class="cls-1" d="M87.72,98l-1.39-.74c9.86-18.4,25.43-33.09,25.59-33.23L113,65.18C112.84,65.32,97.45,79.84,87.72,98Z"></path><path class="cls-1" d="M218,270.73h-1.43c-28.35,0-48.22-8.14-59.93-15-12.87-7.55-18.8-15-19.05-15.35l1.24-1c.23.3,24,29.75,77.76,29.75h.88c.49,0,45.9.92,73.72-31.76l1.2,1C265.74,269.72,223.3,270.73,218,270.73Z"></path><path class="cls-2" d="M285.19,232l-15.52,2.31s18.49-12.88,24.44-29.06L314.92,234l37-4a115.3,115.3,0,0,1-28.74,40.29"></path><path class="cls-1" d="M323.7,270.87l-1.05-1.18c17.12-15.16,25.92-33.9,28-38.78l-36.12,3.87-20.23-27.93C289.29,219,277.77,229,272.64,233l12.44-1.85.23,1.56-18.85,2.8,2.76-1.92c.18-.12,18.36-12.93,24.15-28.69l.51-1.38,21.41,29.56,37.81-4.06-.46,1.21A117,117,0,0,1,323.7,270.87Z"></path><path class="cls-1" d="M284.07,233.54,283,232.37a67.71,67.71,0,0,0,15-20.21l1.44.64A69.48,69.48,0,0,1,284.07,233.54Z"></path><path class="cls-1" d="M317.77,264.91l-1.08-1.15c.15-.15,15.55-14.66,25.28-32.82l1.38.74C333.5,250.08,317.92,264.76,317.77,264.91Z"></path><path class="cls-2" d="M144.49,232,160,234.28s-18.5-12.88-24.44-29.06L114.77,234l-37-4a115.35,115.35,0,0,0,28.73,40.29"></path><path class="cls-1" d="M106,270.87C85.93,253.11,77.13,230.49,77,230.27l-.46-1.21,37.82,4.06,21.41-29.56.51,1.38c5.79,15.76,24,28.57,24.15,28.69l2.75,1.92-18.84-2.8.23-1.56L157.05,233c-5.13-4-16.65-14-21.68-26.19l-20.23,27.93L79,230.91c2.1,4.88,10.9,23.62,28,38.78Z"></path><path class="cls-1" d="M145.62,233.54a69.4,69.4,0,0,1-15.39-20.74l1.44-.64a67.92,67.92,0,0,0,15,20.21Z"></path><path class="cls-1" d="M111.92,264.91c-.16-.15-15.73-14.83-25.59-33.23l1.39-.74c9.73,18.16,25.12,32.67,25.28,32.82Z"></path><rect class="cls-2" x="5.12" y="138.25" width="422.42" height="4.29"></rect><rect class="cls-2" x="5.12" y="186.8" width="422.42" height="4.29"></rect><path class="cls-2" d="M145.49,96.31,99.25,50.4S145.72,3.5,216.16,3.5c33.36,0,61.44,3,114.28,47.56L285.19,97S220.79,32.56,145.49,96.31Z"></path><path class="cls-1" d="M285.2,98.39l-.72-.71a112.4,112.4,0,0,0-41.28-24c-23-7.32-58.55-9.2-97.07,23.41l-.7.59L97.83,50.4l.71-.71C99,49.22,146.12,2.5,216.16,2.5c34.13,0,62.34,3.43,114.92,47.8l.83.69ZM214.94,67.21a95.29,95.29,0,0,1,28.94,4.57,115.89,115.89,0,0,1,41.29,23.79L329,51.13C277.43,7.86,249.68,4.5,216.16,4.5c-64.5,0-109.33,40.1-115.48,45.91L145.54,95C170.8,73.82,194.81,67.21,214.94,67.21Z"></path><path class="cls-1" d="M324.81,57.75c-42.54-38.57-71.34-46.44-104-46.64h-1.05c-70.86,0-114,44.49-114.47,44.94l-1.45-1.38C104.24,54.21,148,9.1,219.73,9.1h1.06c33.16.2,62.35,8.16,105.37,47.15Z"></path><path class="cls-1" d="M291.2,91.54C263.38,58.87,218,59.78,217.51,59.78h-.88c-53.83,0-77.55,29.46-77.79,29.76l-1.24-1c.24-.3,24.4-30.35,79-30.35h.89c.43,0,46.59-1,74.91,32.31Z"></path><path class="cls-3" d="M140,39.15a19.8,19.8,0,0,1,8-6,20.18,20.18,0,0,1,4.74-1.25,20.43,20.43,0,0,1,5.09-.33,17.06,17.06,0,0,0,.11,3,8.29,8.29,0,0,1,0,2.44,13.5,13.5,0,0,0-5.14-2.54,9.67,9.67,0,0,0-6.17,1,14.79,14.79,0,0,0-4,2.53,7.19,7.19,0,0,0-2.13,3.21,4.93,4.93,0,0,0,.3,3.56,4.56,4.56,0,0,0,4,3.07,34.78,34.78,0,0,0,7.9-1,23.17,23.17,0,0,1,8.35-.55q3.18.53,4.89,4.34a7.82,7.82,0,0,1,.47,5.36,11.4,11.4,0,0,1-2.84,5,15.28,15.28,0,0,1-4.85,3.47,21.93,21.93,0,0,1-3.94,1.17,17.16,17.16,0,0,1-4.71.5c0-.46-.08-1.18-.15-2.15s-.2-2-.39-3.12A9.85,9.85,0,0,0,154.44,63a10.19,10.19,0,0,0,5-.58A9.64,9.64,0,0,0,162.72,60a8.08,8.08,0,0,0,1.9-3.51,5.4,5.4,0,0,0-.29-3.62,4.39,4.39,0,0,0-4-3,35.87,35.87,0,0,0-7.86,1,23.17,23.17,0,0,1-8.3.61Q141,51,139.35,47.24A7.52,7.52,0,0,1,140,39.15Z"></path><path class="cls-3" d="M187,26.58,192.1,35q2.81,4.62,6.11,9.07a50.44,50.44,0,0,0,7,7.71,19.41,19.41,0,0,1-3.08.8l-1.83.32L188,35.39l-.36.07-12.1,21.93A23.34,23.34,0,0,1,173.67,52a29.57,29.57,0,0,1-.39-5.67,13.93,13.93,0,0,1,1-4.46,41.35,41.35,0,0,1,3-5.68,14,14,0,0,1,1.86-2.39c.63-.62,1.38-1.3,2.26-2a17.7,17.7,0,0,0,1.74-1.57,1.17,1.17,0,0,0,.34-1q-.33-1.92-2.88-3.38a28.69,28.69,0,0,0-4.17-2.05l7.38-1.29Q184.64,22.78,187,26.58Zm-8.6,9.81a18.1,18.1,0,0,0-1.74,8.4,14.36,14.36,0,0,0,.25,2.48c.12.72.26,1.38.41,2s.26,1,.34,1.3l.37-.07,9-16.35a7.84,7.84,0,0,1-.9-1.07c-.27-.4-.55-.81-.83-1.24l-.94-1.45A15.47,15.47,0,0,0,178.37,36.39Z"></path><path class="cls-3" d="M216.74,20l.43,31.62-3.85,0L213,25.24a10.11,10.11,0,0,0-.22-2.26,2.64,2.64,0,0,0-1-1.31,17.44,17.44,0,0,0-2.65-1.58Z"></path><path class="cls-3" d="M255,26.44a16.81,16.81,0,0,0-2.12-4l5.8,1.06-1.2,3.12-4.8,26.24,0,3.15-1.1-.2L233.11,23.58l-3.66,20a21.54,21.54,0,0,0-.39,3.31,11.45,11.45,0,0,0,.14,2.25,11,11,0,0,0,.46,1.67c.19.51.42,1.14.71,1.89l-5.24-1a14.84,14.84,0,0,0,1.71-4.22L231.5,22a1.1,1.1,0,0,0-.37-1,20.79,20.79,0,0,0-1.78-1.37,16.35,16.35,0,0,1-1.86-1.49l7.56,1.38,16.67,30.53L255.21,31A8.8,8.8,0,0,0,255,26.44Z"></path><path class="cls-3" d="M296.37,40.45c-.72.45-1.56.93-2.52,1.45S292,43,291.2,43.53c-.95-1.89-1.57-3.06-1.85-3.51a4.88,4.88,0,0,0-1.26-1.27,19.82,19.82,0,0,1-1.69-1.4l-3.54-1.63L269.71,64.21l-3.27-1.51L279.24,35l.12-.07a.47.47,0,0,0,.1-.11c.16-.34-.65-.92-2.41-1.73a10.81,10.81,0,0,0-4.24-1.12,20.48,20.48,0,0,0-5.19.73c-.12-.61-.34-1.54-.64-2.79s-.55-2.35-.72-3.3Z"></path><path class="cls-2" d="M145.49,232.63,99.25,278.54s46.47,46.9,116.91,46.9c33.36,0,61.44-3,114.28-47.56L285.19,232S220.79,296.37,145.49,232.63Z"></path><path class="cls-1" d="M216.16,326.44c-70,0-117.15-46.73-117.62-47.2l-.71-.71,47.6-47.26.7.59c38.55,32.64,74.1,30.73,97.14,23.39a112.2,112.2,0,0,0,41.21-24l.72-.71,46.71,47.39-.83.7C278.5,323,250.29,326.44,216.16,326.44ZM100.68,278.53c6.15,5.8,51,45.91,115.48,45.91,33.52,0,61.27-3.36,112.81-46.63l-43.8-44.44a116.08,116.08,0,0,1-41.29,23.78c-23.38,7.46-59.36,9.44-98.34-23.17Z"></path><path class="cls-1" d="M219.73,319.83c-71.7,0-115.49-45.1-115.92-45.56l1.45-1.38c.43.45,43.66,44.94,114.47,44.94h1.05c32.69-.2,61.49-8.08,104-46.64l1.35,1.48c-43,39-72.21,46.95-105.37,47.16Z"></path><path class="cls-3" d="M137.14,268.67a12.92,12.92,0,0,1,4.61-3,14.32,14.32,0,0,1,5.39-.92,16.33,16.33,0,0,1,5.48,1,17,17,0,0,1,3.47,1.68,10,10,0,0,1,2.13,1.84,11.14,11.14,0,0,1,1.37,2.15c.41.81.77,1.56,1.1,2.24l1.81-.65a18.42,18.42,0,0,1,2.3-.6,12.18,12.18,0,0,1,2.95-.17A10.88,10.88,0,0,1,171,273a15.44,15.44,0,0,1,4.76,3.07,12.93,12.93,0,0,1,3.63,5.82,12.3,12.3,0,0,1-.55,8.17,14.78,14.78,0,0,1-4.27,6.16,14,14,0,0,1-6.57,3.19,13.16,13.16,0,0,1-7.28-.63,8.65,8.65,0,0,1-3.41-2,5.09,5.09,0,0,1-1.15-2.85,11.89,11.89,0,0,0,2.29,2.85,8.51,8.51,0,0,0,2.44,1.36,8.39,8.39,0,0,0,6,.08,12.55,12.55,0,0,0,5.21-3.68,19.19,19.19,0,0,0,3.54-6,13.27,13.27,0,0,0,.88-4.78,12.54,12.54,0,0,0-.79-4.43,10.74,10.74,0,0,0-2.15-3.54,8.22,8.22,0,0,0-3.18-2.17,8.83,8.83,0,0,0-4.08-.49,9.58,9.58,0,0,0-3.79,1.16,4.4,4.4,0,0,0-2.08,2.13q-1.31,3.36-3.36,8.87c-.6,1.61-1.06,2.86-1.38,3.74s-.62,1.69-.88,2.41L154,293.6c-.25.7-.51,1.39-.76,2.07l-3.57-1.33q.39-.63,2.25-4.55t2.52-5.7l2.43-6.5a10.85,10.85,0,0,0,.63-3.95,8,8,0,0,0-1.18-4.08,7,7,0,0,0-3.7-2.85,11.3,11.3,0,0,0-6.07-.61,10.65,10.65,0,0,0-5.36,2.69,13.93,13.93,0,0,0-3.67,5.6,16.78,16.78,0,0,0-1.14,7.09,10.94,10.94,0,0,0,2.13,5.92,11.28,11.28,0,0,0,5.27,3.79,8.55,8.55,0,0,0,2.86.62,4.08,4.08,0,0,0,2.53-1.05,4.82,4.82,0,0,1-4,1.5,14.9,14.9,0,0,1-4.29-.86,11.22,11.22,0,0,1-2.68-1.69,15.62,15.62,0,0,1-3.22-3.58,12.73,12.73,0,0,1-2-5.45,14,14,0,0,1,1-7A13.52,13.52,0,0,1,137.14,268.67Z"></path><path class="cls-3" d="M199.61,282.67q.94,3.61,2.08,8t2.7,8.79a42.52,42.52,0,0,0,3.71,7.91,15.58,15.58,0,0,1-2.66-.11l-1.56-.19L198.25,290l-.3,0-15.11,14.7a19.58,19.58,0,0,1-.14-4.81,24.83,24.83,0,0,1,1.07-4.66,12,12,0,0,1,1.93-3.34,34.51,34.51,0,0,1,3.81-3.83,11.47,11.47,0,0,1,2.08-1.47c.66-.35,1.43-.71,2.32-1.08a15.64,15.64,0,0,0,1.79-.84,1,1,0,0,0,.52-.72,4.36,4.36,0,0,0-1.5-3.43,24.56,24.56,0,0,0-2.85-2.68l6.26.77C198.49,278.89,199,280.25,199.61,282.67Zm-9.32,5.79a15.12,15.12,0,0,0-3.45,6.34,12.1,12.1,0,0,0-.41,2.06q-.12.9-.15,1.68c0,.52,0,.9,0,1.13l.31,0,11.23-11a7.46,7.46,0,0,1-.46-1.08l-.36-1.2c-.12-.42-.26-.88-.41-1.4A13.09,13.09,0,0,0,190.29,288.46Z"></path><path class="cls-3" d="M224.62,279.53a7.46,7.46,0,0,1,3,.52,5.66,5.66,0,0,1,2.38,1.7,4.23,4.23,0,0,1,1,2.64,6.76,6.76,0,0,1-1.21,4.2,11.48,11.48,0,0,1-3,3,25.08,25.08,0,0,1-3.62,2c-1.26.56-1.89.85-1.9.86a13.9,13.9,0,0,1,3.61,2.27c.92.85,2.1,2,3.54,3.62a32.48,32.48,0,0,0,4.09,3.83,19.79,19.79,0,0,0,4.85,2.62,35.13,35.13,0,0,1-3.75.27l-1.88.06-11.2-11.19-2-.93.4,12.67-2.82-.07-.55-17.73a29,29,0,0,0-.56-5.49,4.91,4.91,0,0,0-1.11-2.38,8.67,8.67,0,0,0-2.17-1.3q1.13.06,2.55,0a4.58,4.58,0,0,1,2,.25,4.67,4.67,0,0,1,1.39,1.37A13.35,13.35,0,0,1,224.62,279.53Zm-3.55,2.25a9.65,9.65,0,0,0-2,1.07,12,12,0,0,1-1.12.75l.33,10.53a27.74,27.74,0,0,0,7.09-3.69,5.62,5.62,0,0,0,2.4-4.75,4.56,4.56,0,0,0-1.3-3.1,3.8,3.8,0,0,0-3-1.25A7,7,0,0,0,221.07,281.78Z"></path><path class="cls-3" d="M258.05,300.43a5.53,5.53,0,0,0,.93-3.36,21,21,0,0,0-.73-4.58c-.18-.72-.49-1.84-.94-3.36s-.76-2.67-1-3.43a18.77,18.77,0,0,1-.64-7.6,6.3,6.3,0,0,1,4-4.66l1.42-.36q-.12,3.94-1.23,4.23a1.09,1.09,0,0,1-.26,0l-.25,0c-.6.15-.83,1.42-.7,3.8a31.85,31.85,0,0,0,.78,4.85q.69,3.13,1.34,5.89t1.13,5.59a32.5,32.5,0,0,1,.5,5.21q-.06,9.16-8.86,11.43a7.59,7.59,0,0,1-1.65.08,12.54,12.54,0,0,1-1.82-.12A9.94,9.94,0,0,0,257,311.2a11,11,0,0,0,2.84-4.54,9,9,0,0,0,.2-5.09,9.48,9.48,0,0,0-.32-1.05,25.87,25.87,0,0,1-2.41,2.15,4.5,4.5,0,0,1-1.55.7l-1.21.31a10.7,10.7,0,0,1-6.78-.23,10.87,10.87,0,0,1-4.85-3.83,17.28,17.28,0,0,1-2.7-5.83,35.41,35.41,0,0,1-.7-5.39q-.3-3.86-.42-6.07a2,2,0,0,0-1.28-1.22q-1.1-.5-1.92-.81a20.65,20.65,0,0,1,2.84-.89l3.33-.85.36,1.41a51.67,51.67,0,0,0,0,6.84,37,37,0,0,0,.76,6.81,16.43,16.43,0,0,0,1.18,3,14.68,14.68,0,0,0,2.28,3.32,8.91,8.91,0,0,0,3.5,2.38,7.7,7.7,0,0,0,4.68.12A5.47,5.47,0,0,0,258.05,300.43Z"></path><path class="cls-3" d="M267.83,266.85a14.22,14.22,0,0,1,.7,2.29l.32,1.34a1,1,0,0,1-.55,1,28.47,28.47,0,0,1-2.73-3.55,1.14,1.14,0,0,1,.6-1.72A1.11,1.11,0,0,1,267.83,266.85Z"></path><path class="cls-3" d="M275.76,267.81a16.65,16.65,0,0,1,6-5.82,16.9,16.9,0,0,1,3.83-1.53,17.31,17.31,0,0,1,4.22-.81,14.07,14.07,0,0,0,.39,2.45,7.53,7.53,0,0,1,.27,2,11.55,11.55,0,0,0-4.56-1.59,8.22,8.22,0,0,0-5.06,1.45,12.72,12.72,0,0,0-3,2.52,6,6,0,0,0-1.45,2.91,4.15,4.15,0,0,0,.61,2.93,3.83,3.83,0,0,0,3.69,2.15,29,29,0,0,0,6.5-1.62,19.67,19.67,0,0,1,6.91-1.32q2.72.12,4.54,3.12a6.61,6.61,0,0,1,.94,4.43,9.7,9.7,0,0,1-1.86,4.45A12.73,12.73,0,0,1,294,287a18.68,18.68,0,0,1-3.17,1.38,14.38,14.38,0,0,1-3.88.9c-.07-.38-.19-1-.34-1.78s-.38-1.66-.65-2.56a8.22,8.22,0,0,0,4.3,1.3,8.58,8.58,0,0,0,4.13-1,8,8,0,0,0,2.47-2.35,6.82,6.82,0,0,0,1.23-3.13,4.5,4.5,0,0,0-.62-3,3.69,3.69,0,0,0-3.64-2.07,30.14,30.14,0,0,0-6.46,1.67,19.68,19.68,0,0,1-6.87,1.36c-1.78-.07-3.26-1.09-4.46-3.05A6.33,6.33,0,0,1,275.76,267.81Z"></path><path class="cls-1" d="M218,270.73h-1.43c-28.35,0-48.22-8.14-59.93-15-12.87-7.55-18.8-15-19.05-15.35l1.24-1c.23.3,24,29.75,77.76,29.75h.88c.49,0,45.9.92,73.72-31.76l1.2,1C265.74,269.72,223.3,270.73,218,270.73Z"></path><circle class="cls-4" cx="215.49" cy="164.68" r="80.09"></circle><path class="cls-1" d="M215.49,84.59a80.09,80.09,0,1,1-80.09,80.09,80.09,80.09,0,0,1,80.09-80.09m0-4a84.09,84.09,0,1,0,84.09,84.09,84.18,84.18,0,0,0-84.09-84.09Z"></path><rect class="cls-1" x="142.51" y="123.7" width="143.01" height="2.03"></rect><rect class="cls-1" x="130.29" y="158.06" width="171.41" height="2"></rect><rect class="cls-1" x="214.49" y="78.8" width="2" height="45.91"></rect><path class="cls-1" d="M213.77,246.44c-10.69,0-19.07-1.92-25.34-5.76-9.63-5.9-12.17-15.33-13.86-21.57-4.19-15.55,1.58-56.53,2-59.12V79.8h2v80.4c-.06.43-6.14,43.06-2,58.39,2.74,10.17,7,25.83,37.32,25.83a141.92,141.92,0,0,0,27.79-3.21c4-.8,11.55-4,14.88-10.77,2.64-5.38,2.1-11.91-1.6-19.41-.67-1.36-1.5-2.76-2.37-4.25-4.27-7.27-9.59-16.31-3.95-32.19,1.17-3.29,2.76-13.63,2.91-14.61V125.71h2v34.5c-.07.46-1.73,11.43-3,15-5.33,15-.48,23.24,3.8,30.51.88,1.52,1.73,2.95,2.43,4.38,4,8.08,4.54,15.21,1.61,21.17-3.68,7.5-12,11-16.29,11.85A144.71,144.71,0,0,1,213.77,246.44Z"></path><rect class="cls-1" x="251.49" y="78.8" width="2" height="45.91"></rect><path class="cls-3" d="M314.48,177.42a28.75,28.75,0,0,1-3-.19c-.32,0-1,0-2,.09l-1.65.1a9.13,9.13,0,0,1-3.24-.52,3.77,3.77,0,0,1-2.13-2.07,6.55,6.55,0,0,1-.6-2.65,5.76,5.76,0,0,1,1.06-3.44.64.64,0,0,1,.45-.26l3.7-.38a17.41,17.41,0,0,0,2.58-.45.63.63,0,0,1,.57.14.65.65,0,0,1,.2.56,6.93,6.93,0,0,1-.46,1.53,8.37,8.37,0,0,0-.4,1.14,2.25,2.25,0,0,0-.08.62,2,2,0,0,0,.81,1.62,3.22,3.22,0,0,0,2.13.71,11.86,11.86,0,0,0,1.29-.24,5.33,5.33,0,0,0,2.42-1.62,5.07,5.07,0,0,0,1.57-2.44,12,12,0,0,0,.2-1.69,2.61,2.61,0,0,0-.23-1.14,1.16,1.16,0,0,0-.52-.6,2.06,2.06,0,0,0-.68-.24,6.47,6.47,0,0,0-.83,0H311a15.57,15.57,0,0,1-4.73-.61,6.16,6.16,0,0,1-3.31-2.74,6,6,0,0,1-.66-2.86,8.17,8.17,0,0,1,.59-3,11.07,11.07,0,0,1,1.79-2.92,6.85,6.85,0,0,1,3.21-2.16,13.06,13.06,0,0,1,4.1-.61,14.2,14.2,0,0,1,1.54.08l1.28.13c.3,0,.55.06.74.07l.5,0c.54,0,1.09,0,1.64,0l1.67-.07h0a9.08,9.08,0,0,1,2.68.35,4.18,4.18,0,0,1,2,1.43,7,7,0,0,1,.92,1.83,6,6,0,0,1,.32,1.91,3.68,3.68,0,0,1-.07.7l-.09.51a.61.61,0,0,1-.23.37l-.19.16a.65.65,0,0,1-.47.13,11.56,11.56,0,0,0-1.49-.15H322a13.61,13.61,0,0,0-3.88.58.61.61,0,0,1-.69-.25,1,1,0,0,1-.17-.52c0-.13,0-.23,0-.32v-1.52a2.51,2.51,0,0,0-.12-.86.92.92,0,0,0-.38-.41,2.48,2.48,0,0,0-.79-.32,4.54,4.54,0,0,0-.85-.1,6,6,0,0,0-2,.38,9,9,0,0,0-2,1,5.21,5.21,0,0,0-1.07,1.28,2.8,2.8,0,0,0-.37,1.43v.57a.69.69,0,0,0,.17.41,3.24,3.24,0,0,0,.66.59,5.57,5.57,0,0,0,1.54.47,12.59,12.59,0,0,0,1.88.14c.76,0,1.95-.07,3.54-.22a16.31,16.31,0,0,1,2.92-.22,6,6,0,0,1,2.69,1.18,6.2,6.2,0,0,1,1.83,2.32,10.46,10.46,0,0,1,.59,3.37c0,3.07-.87,5.35-2.6,6.78a13.18,13.18,0,0,1-4.33,2.62A14,14,0,0,1,314.48,177.42Zm-3-1.44a26,26,0,0,0,3,.19,12.56,12.56,0,0,0,3.69-.51,12.16,12.16,0,0,0,3.89-2.38c1.43-1.19,2.15-3.14,2.15-5.82a9.23,9.23,0,0,0-.5-2.91,4.89,4.89,0,0,0-3.51-2.72c-.21,0-.86,0-2.66.22-1.62.16-2.85.23-3.65.23a12.71,12.71,0,0,1-2.08-.16,7,7,0,0,1-2-.62,4.59,4.59,0,0,1-1-.89,1.91,1.91,0,0,1-.44-1.19v-.57a4,4,0,0,1,.54-2,6.27,6.27,0,0,1,1.39-1.65,9.59,9.59,0,0,1,2.3-1.17,7.19,7.19,0,0,1,2.43-.46,5.75,5.75,0,0,1,1.12.13,3.58,3.58,0,0,1,1.18.48,2.08,2.08,0,0,1,.87,1,3.39,3.39,0,0,1,.22,1.33v1.21a15,15,0,0,1,3.51-.43h.78a9.87,9.87,0,0,1,1.23.1v-.09a2.9,2.9,0,0,0,0-.48,4.88,4.88,0,0,0-.25-1.51,6.34,6.34,0,0,0-.74-1.5,3,3,0,0,0-1.42-1,7.86,7.86,0,0,0-2.28-.29l-1.64.07c-.56,0-1.13,0-1.69,0l-.57,0c-.22,0-.49,0-.82-.08l-1.25-.13c-.51,0-1-.07-1.42-.07a11.75,11.75,0,0,0-3.71.55,5.53,5.53,0,0,0-2.64,1.77,9.92,9.92,0,0,0-1.59,2.58,7,7,0,0,0-.5,2.54A4.66,4.66,0,0,0,304,162a4.8,4.8,0,0,0,2.61,2.17,14.28,14.28,0,0,0,4.34.55h4.7c.39,0,.7,0,1,0a3.59,3.59,0,0,1,1.11.37,2.44,2.44,0,0,1,1.1,1.2,3.94,3.94,0,0,1,.34,1.66,13,13,0,0,1-.21,1.9A6.27,6.27,0,0,1,317,173a6.54,6.54,0,0,1-3,2,9.28,9.28,0,0,1-1.55.26,4.49,4.49,0,0,1-2.92-1,3.21,3.21,0,0,1-1.27-2.59,4.2,4.2,0,0,1,.11-.92,10.64,10.64,0,0,1,.47-1.31l.12-.32a16.92,16.92,0,0,1-1.74.25l-3.41.36a4.51,4.51,0,0,0-.67,2.48,5.34,5.34,0,0,0,.49,2.15,2.51,2.51,0,0,0,1.44,1.4,7.81,7.81,0,0,0,2.79.44c.11,0,.63,0,1.57-.1S311.1,176,311.52,176Zm13-18.11h0Z"></path><path class="cls-3" d="M344.37,177c-2.1,0-4.89,0-8.28-.1l-5.76-.09a.63.63,0,0,1-.5-.25l-.11-.15a.66.66,0,0,1-.12-.45c.12-1.11.21-2.32.26-3.62s.08-2.6.08-3.87c0-2.07,0-4.73-.12-7.89s-.11-4.77-.11-4.8c0-.31-.11-.75-.2-1.22s-.22-1.11-.39-1.91a.62.62,0,0,1,.46-.74l.15,0,.15,0h3.79c1,0,1.77,0,2.17,0a.4.4,0,0,1,.15,0c.29.1.58.18.87.25a.62.62,0,0,1,.46.74,33.5,33.5,0,0,0-.65,4.6c-.14,1.7-.21,3.38-.21,5,0,1.08,0,2.88.08,5.38,0,2.29.07,3.6.07,3.94a2.48,2.48,0,0,0,.23.64.44.44,0,0,0,.16.17,35.79,35.79,0,0,0,4.16-.25c1.34-.17,3-.43,4.88-.77a.63.63,0,0,1,.66.31,1,1,0,0,1,0,1.05l-1.45,3.38a.52.52,0,0,1-.14.19C344.83,176.87,344.66,177,344.37,177Zm.3-.89h0Zm-13.77-.55,5.21.09c3.27.07,6,.1,8,.1l1.17-2.73c-1.53.26-2.87.46-4,.61a36.44,36.44,0,0,1-4.46.26.59.59,0,0,1-.23-.05,1.71,1.71,0,0,1-.89-.76,4.15,4.15,0,0,1-.36-1.05.59.59,0,0,1,0-.13c0-.15,0-1.48-.07-4s-.08-4.32-.08-5.41c0-1.65.07-3.37.21-5.1a36.56,36.56,0,0,1,.56-4.18l-.3-.1q-.58,0-2,0h-3.18c.11.49.19.9.25,1.24.09.49.16,1,.21,1.36,0,.15.05,1.74.12,4.85s.12,5.84.12,7.92c0,1.29,0,2.61-.08,3.92C331.07,173.55,331,174.61,330.9,175.6Zm14.81-3.35h0Z"></path><path class="cls-3" d="M356.85,177h-6.34a.76.76,0,0,1-.77-.81,102.49,102.49,0,0,0,.83-13.34c0-1.13-.09-2.85-.26-5.1s-.27-3.94-.27-5a.82.82,0,0,1,.31-.7.61.61,0,0,1,.51-.27h6a.62.62,0,0,1,.39.14l.19.15a.63.63,0,0,1,.23.57c-.23,1.78-.39,3.62-.49,5.46S357,162,357,164a115.37,115.37,0,0,0,.64,12.17.65.65,0,0,1-.18.51l-.19.19A.67.67,0,0,1,356.85,177Zm-5.8-1.25h5.32a116.71,116.71,0,0,1-.6-11.8c0-2,.05-4,.15-5.88.09-1.69.24-3.37.43-5h-5.06c0,1,.1,2.55.26,4.59.18,2.29.27,4,.27,5.2A102.74,102.74,0,0,1,351.05,175.79Zm-.82-23.31Zm.29-.47h0Z"></path><path class="cls-3" d="M373.39,177.61a15.6,15.6,0,0,1-5.65-1.05,8.54,8.54,0,0,1-4.51-4.37,15.28,15.28,0,0,1-1.62-6.95,14,14,0,0,1,1.93-7.19,10.47,10.47,0,0,1,5.53-4.64,13.19,13.19,0,0,1,3.77-1.11,30.2,30.2,0,0,1,4.35-.29,24.16,24.16,0,0,1,5.11-.54,17.69,17.69,0,0,1,4.53.52,5.62,5.62,0,0,1,2.91,1.62q.78.94,1.38,1.71a3.89,3.89,0,0,1,.83,1.85.64.64,0,0,1-.23.58h0a.64.64,0,0,1-.49.35l-3.64.36c-1,.09-1.91.13-2.69.13a.61.61,0,0,1-.55-.33,6.52,6.52,0,0,0-1.22-1.61,2.63,2.63,0,0,0-1.44-.8c-.69-.19-1.36-.34-2.06-.47a6.84,6.84,0,0,0-4.31.3l-.1,0a9.74,9.74,0,0,0-3.88,2.42,7.58,7.58,0,0,0-2.22,3.51,14.32,14.32,0,0,0-.44,3.24,9.65,9.65,0,0,0,.95,4.24,8.61,8.61,0,0,0,2.74,3.25l2.38,1.19a6.14,6.14,0,0,0,2.37.54h.67c.3-.08.78-.19,1.47-.33a7.61,7.61,0,0,0,2.42-1.12,3.62,3.62,0,0,0,1.62-2.38,6.61,6.61,0,0,0,.32-1.35,13.33,13.33,0,0,0,.09-1.63v-2.54a.63.63,0,0,1,.54-.62,11.85,11.85,0,0,1,1.64-.08c.64,0,1.16,0,1.55,0h2.43a.6.6,0,0,1,.33.09l.21.09a.62.62,0,0,1,.35.56,23.75,23.75,0,0,1-.41,3.71,23.3,23.3,0,0,0-.39,3.27,7.69,7.69,0,0,0,.16,1.61,4.75,4.75,0,0,0,.37,1.09l.58,1.06a5.35,5.35,0,0,1,.42,1,.61.61,0,0,1-.1.55,1.85,1.85,0,0,1-.9.35,30.22,30.22,0,0,0-4.76-.37c-1,0-2.59.06-4.78.19s-3.72.19-4.47.19A19.56,19.56,0,0,1,373.39,177.61Zm8.91-24.89a23.51,23.51,0,0,0-4.91.52l-.13,0a30.14,30.14,0,0,0-4.24.27,12.66,12.66,0,0,0-3.47,1,9.36,9.36,0,0,0-4.94,4.13,12.75,12.75,0,0,0-1.75,6.55,14,14,0,0,0,1.49,6.39,7.35,7.35,0,0,0,3.84,3.77,14.61,14.61,0,0,0,5.2,1,20.44,20.44,0,0,0,3-.22c.81,0,2.29-.07,4.5-.2s3.85-.19,4.85-.19a31.5,31.5,0,0,1,4.19.27l-.53-1a5.77,5.77,0,0,1-.49-1.41,8.85,8.85,0,0,1-.19-1.88,24.81,24.81,0,0,1,.41-3.48,27.45,27.45,0,0,0,.37-3h-2c-.37,0-.92,0-1.59,0l-.93,0v2a15.87,15.87,0,0,1-.1,1.78,7.23,7.23,0,0,1-.36,1.54,4.73,4.73,0,0,1-2.14,3.08,8.55,8.55,0,0,1-2.85,1.31c-.9.18-1.28.27-1.45.32a.57.57,0,0,1-.18,0h-.76a7.31,7.31,0,0,1-2.9-.66l-2.46-1.22-.09-.06a10,10,0,0,1-3.17-3.75,10.9,10.9,0,0,1-1.07-4.78,15.62,15.62,0,0,1,.47-3.53,8.82,8.82,0,0,1,2.57-4.11,11,11,0,0,1,4.34-2.71,8.07,8.07,0,0,1,5-.39q1.11.21,2.1.48a3.78,3.78,0,0,1,2.05,1.13,7.68,7.68,0,0,1,1.25,1.58c.66,0,1.4,0,2.22-.13s1.93-.18,3.14-.31a3.13,3.13,0,0,0-.47-.82c-.39-.5-.84-1.06-1.35-1.67a4.39,4.39,0,0,0-2.28-1.22A16,16,0,0,0,382.3,152.72Zm8,11.5Zm-.19-.12h0Z"></path><path class="cls-3" d="M406.27,177.65a13.82,13.82,0,0,1-4.62-.76,8.83,8.83,0,0,1-3.73-2.53,12.71,12.71,0,0,1-2.38-4,13.63,13.63,0,0,1-.85-4.77,15.55,15.55,0,0,1,.92-5,12.15,12.15,0,0,1,4-5.19,13.39,13.39,0,0,1,6.49-3c1.52-.15,2.63-.28,3.32-.38a10.69,10.69,0,0,0,1.8-.39,9.44,9.44,0,0,1,1.67-.37,11.75,11.75,0,0,1,7.41,1.55,10.7,10.7,0,0,1,4.15,4.32,11,11,0,0,1,1.09,2.94,15.2,15.2,0,0,1,.35,3.19,15,15,0,0,1-.63,4.32A15.27,15.27,0,0,1,422.9,172a11.88,11.88,0,0,1-5.1,3.79,18.73,18.73,0,0,1-7.25,1.39A19.49,19.49,0,0,1,406.27,177.65Zm8.05-25.27a11.83,11.83,0,0,0-1.32.08,7.5,7.5,0,0,0-1.44.31,11.94,11.94,0,0,1-2,.44c-.71.1-1.83.23-3.35.38a12.12,12.12,0,0,0-5.85,2.71,10.89,10.89,0,0,0-3.58,4.63,14.16,14.16,0,0,0-.85,4.64,12.55,12.55,0,0,0,.77,4.33,11.58,11.58,0,0,0,2.14,3.63,7.64,7.64,0,0,0,3.21,2.18,15.05,15.05,0,0,0,8.28.21l.14,0a17.41,17.41,0,0,0,6.84-1.3,10.47,10.47,0,0,0,4.57-3.37,13.93,13.93,0,0,0,2.14-4.06,13.56,13.56,0,0,0,.58-4,13.17,13.17,0,0,0-.32-2.91,10,10,0,0,0-1-2.63h0a9.62,9.62,0,0,0-3.69-3.83A10.31,10.31,0,0,0,414.32,152.38Zm-4,22.68a9.77,9.77,0,0,1-5.4-1.55,8.49,8.49,0,0,1-3.41-3.93,11.18,11.18,0,0,1,0-9,12.26,12.26,0,0,1,2.67-4,17.64,17.64,0,0,1,3-2,6.65,6.65,0,0,1,3-.71,11.12,11.12,0,0,1,2.45.38,10.93,10.93,0,0,1,3,1.29,8.91,8.91,0,0,1,2.87,3.19,9.79,9.79,0,0,1,1.38,5.25,12.14,12.14,0,0,1-2.31,7,10.08,10.08,0,0,1-7.26,4.07Zm-.13-19.91a5.37,5.37,0,0,0-2.43.58,15.79,15.79,0,0,0-2.72,1.83,11.47,11.47,0,0,0-2.36,3.51,10.48,10.48,0,0,0-.85,4.15,10.3,10.3,0,0,0,.84,3.88,7.21,7.21,0,0,0,2.93,3.35,8.47,8.47,0,0,0,4.67,1.37,8.83,8.83,0,0,0,6.31-3.55,10.83,10.83,0,0,0,2.09-6.26,8.54,8.54,0,0,0-1.2-4.6h0a7.84,7.84,0,0,0-2.45-2.77,9.87,9.87,0,0,0-2.68-1.14A10.19,10.19,0,0,0,410.18,155.15Z"></path><path class="cls-3" d="M28.78,177.23H22.64a14.16,14.16,0,0,1-5.76-1.12,9.86,9.86,0,0,1-4.33-4,12.89,12.89,0,0,1-1.77-6.92,15.32,15.32,0,0,1,.64-4.35,12.87,12.87,0,0,1,1.83-3.82,14.3,14.3,0,0,1,11.62-5.42c1.07-.15,2.05-.27,2.88-.36a21.85,21.85,0,0,1,2.28-.14,17.06,17.06,0,0,1,2.15.18,13.69,13.69,0,0,1,4.32,1.8c3,1.65,3.11,2,3.11,2.44a1.08,1.08,0,0,1-.93,1.06c-1.45.63-3,1.28-4.54,1.91a.69.69,0,0,1-.24,0h-.45a.64.64,0,0,1-.47-.21,11.19,11.19,0,0,0-3.41-2.57,9.19,9.19,0,0,0-4-.9A8.91,8.91,0,0,0,21.22,157a9,9,0,0,0-2.72,3.79,12.38,12.38,0,0,0-.74,4,10.56,10.56,0,0,0,.7,3.81,8.38,8.38,0,0,0,2.07,3.08A9.68,9.68,0,0,0,23,173.28a6.67,6.67,0,0,0,2.69.57,20.33,20.33,0,0,0,3.88-.79,31.18,31.18,0,0,0,7.82-3.63.63.63,0,0,1,.94.66c-.31,1.48-.62,2.78-.92,3.86s-.58,1.79-.73,2.3a.63.63,0,0,1-.42.42l0,0a.65.65,0,0,1-.39.21c-1.1.15-2.25.26-3.4.31S30.1,177.23,28.78,177.23Zm7.64-1Zm0,0Zm0,0ZM30,152.38c-.63,0-1.35.05-2.15.13s-1.79.21-2.92.36a13.17,13.17,0,0,0-10.72,4.94,11.65,11.65,0,0,0-1.63,3.42,14.21,14.21,0,0,0-.58,4,11.57,11.57,0,0,0,1.58,6.25,8.67,8.67,0,0,0,3.78,3.5,12.87,12.87,0,0,0,5.25,1h6.14c1.3,0,2.53,0,3.65-.08s2.09-.14,3.09-.27l0,0c.15-.5.37-1.17.64-2,.2-.69.4-1.49.6-2.37a29.47,29.47,0,0,1-6.92,3.05,19.36,19.36,0,0,1-4.2.83,7.72,7.72,0,0,1-3.19-.68,11,11,0,0,1-2.8-1.79,9.94,9.94,0,0,1-2.39-3.56,11.71,11.71,0,0,1-.78-4.26,13.5,13.5,0,0,1,.81-4.45,10.83,10.83,0,0,1,8.14-6.72,10,10,0,0,1,4.65,1,12.11,12.11,0,0,1,3.61,2.65h.06l4.3-1.8c-.34-.24-1-.64-2.19-1.32A13.11,13.11,0,0,0,32,152.55,16.53,16.53,0,0,0,30,152.38Zm8.4,3.43h0Z"></path><path class="cls-3" d="M57.38,177c-2.1,0-4.89,0-8.28-.1l-5.75-.09a.6.6,0,0,1-.5-.25l-.12-.15a.66.66,0,0,1-.12-.45c.13-1.11.21-2.32.27-3.62s.07-2.6.07-3.87c0-2.07,0-4.73-.11-7.89s-.12-4.77-.12-4.8c0-.31-.11-.75-.2-1.22s-.22-1.11-.39-1.91a.62.62,0,0,1,.46-.74l.15,0,.15,0h3.79c1,0,1.77,0,2.17,0a.45.45,0,0,1,.16,0,8.47,8.47,0,0,0,.86.25.62.62,0,0,1,.46.74,33.5,33.5,0,0,0-.65,4.6c-.14,1.7-.21,3.38-.21,5,0,1.08,0,2.88.08,5.38,0,2.29.07,3.6.07,3.94a2.48,2.48,0,0,0,.23.64.44.44,0,0,0,.16.17,35.51,35.51,0,0,0,4.16-.25c1.34-.17,3-.43,4.89-.77a.62.62,0,0,1,.65.31.94.94,0,0,1,0,1.05l-1.45,3.38a.64.64,0,0,1-.13.19C57.84,176.87,57.67,177,57.38,177Zm.31-.89h0Zm-13.78-.55,5.21.09c3.27.07,6,.1,8,.1l1.17-2.73c-1.53.26-2.87.46-4,.61a36.44,36.44,0,0,1-4.46.26.59.59,0,0,1-.23-.05,1.65,1.65,0,0,1-.88-.76,3.79,3.79,0,0,1-.37-1.05.59.59,0,0,1,0-.13c0-.15,0-1.48-.07-4s-.08-4.32-.08-5.41c0-1.65.07-3.37.21-5.1a36.56,36.56,0,0,1,.56-4.18l-.3-.1q-.59,0-2,0H43.51c.1.49.18.9.24,1.24.09.49.17,1,.22,1.36,0,.15,0,1.74.12,4.85s.11,5.84.11,7.92c0,1.29,0,2.61-.08,3.92C44.08,173.55,44,174.61,43.91,175.6Zm14.81-3.35h0Z"></path><path class="cls-3" d="M80.44,177.23H74.3a14.08,14.08,0,0,1-5.75-1.12,9.83,9.83,0,0,1-4.34-4,12.89,12.89,0,0,1-1.76-6.92,15.31,15.31,0,0,1,.63-4.35,12.87,12.87,0,0,1,1.83-3.82,14.32,14.32,0,0,1,11.63-5.42c1.06-.15,2-.27,2.87-.36a21.86,21.86,0,0,1,2.29-.14,16.93,16.93,0,0,1,2.14.18,13.72,13.72,0,0,1,4.33,1.8c3,1.65,3.1,2,3.1,2.44a1.07,1.07,0,0,1-.93,1.06c-1.45.63-3,1.28-4.54,1.91a.59.59,0,0,1-.23,0h-.46a.62.62,0,0,1-.46-.21,11.32,11.32,0,0,0-3.41-2.57,9.2,9.2,0,0,0-4-.9,9.6,9.6,0,0,0-7,5.88,12.14,12.14,0,0,0-.75,4,10.56,10.56,0,0,0,.7,3.81,8.38,8.38,0,0,0,2.07,3.08,9.56,9.56,0,0,0,2.46,1.58,6.62,6.62,0,0,0,2.68.57,20.35,20.35,0,0,0,3.89-.79A31.5,31.5,0,0,0,89,169.43a.6.6,0,0,1,.68,0,.62.62,0,0,1,.25.63c-.3,1.48-.61,2.78-.92,3.86s-.57,1.79-.72,2.3a.65.65,0,0,1-.43.42l0,0a.63.63,0,0,1-.39.21c-1.1.15-2.24.26-3.4.31S81.76,177.23,80.44,177.23Zm7.65-1Zm0,0Zm0,0ZM81.7,152.38c-.63,0-1.36.05-2.16.13s-1.79.21-2.92.36a13.15,13.15,0,0,0-10.71,4.94,11.41,11.41,0,0,0-1.63,3.42,13.86,13.86,0,0,0-.58,4,11.66,11.66,0,0,0,1.57,6.25,8.67,8.67,0,0,0,3.78,3.5,12.87,12.87,0,0,0,5.25,1h6.14c1.3,0,2.53,0,3.66-.08s2.08-.14,3.08-.27l0,0,.64-2c.2-.69.4-1.49.6-2.37a29.47,29.47,0,0,1-6.92,3.05,19.36,19.36,0,0,1-4.2.83,7.76,7.76,0,0,1-3.19-.68,11,11,0,0,1-2.8-1.79A9.79,9.79,0,0,1,69,169.07a11.72,11.72,0,0,1-.79-4.26,13.52,13.52,0,0,1,.82-4.45,10.79,10.79,0,0,1,8.13-6.72,10.17,10.17,0,0,1,4.66,1,12.19,12.19,0,0,1,3.6,2.65h.06c1.43-.59,2.87-1.19,4.3-1.8-.34-.24-1-.64-2.18-1.32a13.24,13.24,0,0,0-3.88-1.65A16.56,16.56,0,0,0,81.7,152.38Zm8.4,3.43h0Z"></path><path class="cls-3" d="M105.33,177.61a15.6,15.6,0,0,1-5.65-1.05,8.54,8.54,0,0,1-4.51-4.37,15.28,15.28,0,0,1-1.62-6.95,14,14,0,0,1,1.93-7.19,10.47,10.47,0,0,1,5.53-4.64,13.19,13.19,0,0,1,3.77-1.11,30.3,30.3,0,0,1,4.35-.29,24.16,24.16,0,0,1,5.11-.54,17.69,17.69,0,0,1,4.53.52,5.62,5.62,0,0,1,2.91,1.62q.79.94,1.38,1.71a3.89,3.89,0,0,1,.83,1.85.64.64,0,0,1-.23.58h0a.63.63,0,0,1-.49.35l-3.64.36c-1,.09-1.91.13-2.69.13a.61.61,0,0,1-.55-.33,6.52,6.52,0,0,0-1.22-1.61,2.59,2.59,0,0,0-1.44-.8c-.69-.19-1.36-.34-2.06-.47a6.84,6.84,0,0,0-4.31.3l-.1,0a9.74,9.74,0,0,0-3.88,2.42,7.58,7.58,0,0,0-2.22,3.51,14.32,14.32,0,0,0-.44,3.24,9.65,9.65,0,0,0,1,4.24,8.61,8.61,0,0,0,2.74,3.25l2.38,1.19a6.14,6.14,0,0,0,2.37.54h.68c.29-.08.77-.19,1.46-.33a7.61,7.61,0,0,0,2.42-1.12,3.62,3.62,0,0,0,1.62-2.38,6.61,6.61,0,0,0,.32-1.35,13.33,13.33,0,0,0,.09-1.63v-2.54a.63.63,0,0,1,.54-.62,11.85,11.85,0,0,1,1.64-.08c.64,0,1.16,0,1.55,0h2.43a.6.6,0,0,1,.33.09l.21.09a.62.62,0,0,1,.35.56,23.75,23.75,0,0,1-.41,3.71,23.3,23.3,0,0,0-.39,3.27,7.69,7.69,0,0,0,.16,1.61,4.29,4.29,0,0,0,.38,1.09l.57,1.06a5.35,5.35,0,0,1,.42,1,.61.61,0,0,1-.1.55,1.85,1.85,0,0,1-.9.35,30.22,30.22,0,0,0-4.76-.37c-1,0-2.59.06-4.78.19s-3.72.19-4.47.19A19.56,19.56,0,0,1,105.33,177.61Zm8.91-24.89a23.51,23.51,0,0,0-4.91.52l-.13,0a30.24,30.24,0,0,0-4.24.27,12.66,12.66,0,0,0-3.47,1,9.36,9.36,0,0,0-4.94,4.13,12.75,12.75,0,0,0-1.75,6.55,14,14,0,0,0,1.49,6.39,7.35,7.35,0,0,0,3.84,3.77,14.61,14.61,0,0,0,5.2,1,20.44,20.44,0,0,0,3-.22c.81,0,2.29-.07,4.5-.2s3.85-.19,4.85-.19a31.5,31.5,0,0,1,4.19.27l-.53-1a5.77,5.77,0,0,1-.49-1.41,8.85,8.85,0,0,1-.19-1.88,24.81,24.81,0,0,1,.41-3.48,27.45,27.45,0,0,0,.37-3h-2c-.37,0-.92,0-1.59,0l-.93,0v2a15.87,15.87,0,0,1-.1,1.78,7.23,7.23,0,0,1-.36,1.54,4.73,4.73,0,0,1-2.14,3.08,8.55,8.55,0,0,1-2.85,1.31c-.9.18-1.28.27-1.45.32a.57.57,0,0,1-.18,0H109a7.31,7.31,0,0,1-2.9-.66l-2.46-1.22-.09-.06a10,10,0,0,1-3.17-3.75,10.9,10.9,0,0,1-1.07-4.78,15.13,15.13,0,0,1,.48-3.53,8.72,8.72,0,0,1,2.56-4.11,11,11,0,0,1,4.34-2.71,8.07,8.07,0,0,1,5-.39q1.11.21,2.1.48a3.78,3.78,0,0,1,2.05,1.13,7.68,7.68,0,0,1,1.25,1.58c.66,0,1.4,0,2.22-.13s1.93-.18,3.14-.31a2.87,2.87,0,0,0-.47-.82c-.39-.5-.84-1.06-1.35-1.67a4.39,4.39,0,0,0-2.28-1.22A16,16,0,0,0,114.24,152.72Zm8,11.5Zm-.19-.12h0Z"></path><path class="cls-5" d="M430.16,193.74V135.43H333a120,120,0,0,0-18-39.33l.2-.28,37.81,4.05-.46-1.2a117.23,117.23,0,0,0-28.29-40L331.91,51l-.83-.69C278.5,5.93,250.29,2.5,216.16,2.5,146.12,2.5,99,49.22,98.54,49.69l-.71.71,7.93,7.87A117.36,117.36,0,0,0,77,98.67l-.46,1.2,37.82-4.05,1.53,2.11a119.87,119.87,0,0,0-16.69,37.5H2.5v58.31H99.05a119.88,119.88,0,0,0,16.54,37.73l-1.19,1.65-37.82-4.06.46,1.21a117.47,117.47,0,0,0,28.72,40.39l-7.93,7.87.71.71c.47.47,47.58,47.2,117.62,47.2,34.13,0,62.34-3.43,114.92-47.8l.83-.7-7.56-7.67a117.24,117.24,0,0,0,28.29-40l.46-1.21-37.5,4a119.94,119.94,0,0,0,17.62-39.34Z"></path></svg> 